<svg xmlns="http://www.w3.org/2000/svg" viewBox="0 0 64 64" fill="none">
  <defs>
    <linearGradient id="bg" x1="0" y1="0" x2="64" y2="64" gradientUnits="userSpaceOnUse">
      <stop offset="0%" stop-color="#818cf8"/>
      <stop offset="45%" stop-color="#8b5cf6"/>
      <stop offset="100%" stop-color="#d8b4fe"/>
    </linearGradient>
    <linearGradient id="star" x1="20" y1="8" x2="44" y2="28" gradientUnits="userSpaceOnUse">
      <stop offset="0%" stop-color="#fde68a"/>
      <stop offset="100%" stop-color="#fbbf24"/>
    </linearGradient>
    <radialGradient id="glow" cx="32" cy="30" r="26" gradientUnits="userSpaceOnUse">
      <stop offset="0%" stop-color="#fff" stop-opacity="0.35"/>
      <stop offset="100%" stop-color="#fff" stop-opacity="0"/>
    </radialGradient>
  </defs>
  <!-- 圆形底 -->
  <circle cx="32" cy="32" r="30" fill="url(#bg)"/>
  <circle cx="32" cy="32" r="30" fill="url(#glow)"/>
  <!-- 月牙 -->
  <path d="M45 44a17 17 0 01-21.5-21.5A17.5 17.5 0 1045 44z" fill="#fff" opacity="0.95"/>
  <!-- 魔法帽 -->
  <path d="M27 38 Q33 24 36.5 19 Q37 25 45 36 Q36 40 27 38z" fill="url(#bg)" opacity="0.55"/>
  <!-- 小星星 -->
  <path d="M42 14 l1.8 3.7 4 .7-2.9 2.9.6 4-3.5-1.9-3.6 1.9.7-4-2.9-2.9 4-.7z" fill="url(#star)"/>
  <path d="M15 22 l1 2.1 2.3.4-1.7 1.6.4 2.3-2-1.1-2 1.1.4-2.3-1.7-1.6 2.3-.4z" fill="url(#star)" opacity="0.8"/>
  <path d="M49 30 l.7 1.5 1.6.3-1.2 1.1.3 1.6-1.4-.8-1.4.8.3-1.6-1.2-1.1 1.6-.3z" fill="url(#star)" opacity="0.6"/>
  <circle cx="20" cy="40" r="1.2" fill="#fff" opacity="0.8"/>
  <circle cx="47" cy="47" r="1" fill="#fff" opacity="0.6"/>
  <circle cx="26" cy="12" r="1" fill="#fff" opacity="0.7"/>
</svg>
